<svg xmlns="http://www.w3.org/2000/svg" viewBox="0 0 1744 1744" fill="none" shape-rendering="auto"><metadata xmlns:rdf="http://www.w3.org/1999/02/22-rdf-syntax-ns#" xmlns:xsi="http://www.w3.org/2001/XMLSchema-instance" xmlns:dc="http://purl.org/dc/elements/1.1/" xmlns:dcterms="http://purl.org/dc/terms/"><rdf:RDF><rdf:Description><dc:title>Notionists</dc:title><dc:creator>Zoish</dc:creator><dc:source xsi:type="dcterms:URI">https://heyzoish.gumroad.com/l/notionists</dc:source><dcterms:license xsi:type="dcterms:URI">https://creativecommons.org/publicdomain/zero/1.0/</dcterms:license><dc:rights>Remix of „Notionists” (https://heyzoish.gumroad.com/l/notionists) by „Zoish”, licensed under „CC0 1.0” (https://creativecommons.org/publicdomain/zero/1.0/)</dc:rights></rdf:Description></rdf:RDF></metadata><mask id="viewboxMask"><rect width="1744" height="1744" rx="0" ry="0" x="0" y="0" fill="#fff" /></mask><g mask="url(#viewboxMask)"><rect fill="#ffd5dc" width="1744" height="1744" x="0" y="0" /><g transform="translate(531 487)"><path d="M554 727.7c-99.2 297-363.8 388.6-503.7 19.8-19.3-50.7 31-69.5 66.2-91.9 24.1-15.3 36.8-28.5 35.3-42.2-7-64.4-36.9-243.8-36.9-243.8l-3-5.8s.7-1.6-2.2 1.2c-3 3-9.9 34.2-37 34.2-24.5 0-49.2-10.9-61-86.3C7.2 285.6 9.6 214 40 201c12.5-5.3 24-7.2 35.2-.8 11.3 6.4-13-22 112-126C268.4 6.4 396.7-3.5 448.5 8 500.3 19.5 552 44.8 574.9 98.5c27.8 65-25.9 114.3-14 262.5-2.2 53.6.8 171.2-146.6 210.6-28 7.5-19.3 48.4 22.7 58.4 67 21 117 72.3 117 97.9" fill="#fff"/><path fill-rule="evenodd" clip-rule="evenodd" d="m554 266.2.1-1.4c4.1-36.4 8.2-71.7 27.1-103.4 6.5 4.4 5.7 10 3.7 15.2-19.9 51.2-18 104.4-16.2 157.6l.4 14c2.1 66.4-14.5 126.8-58.7 177.5-15.4 17.6-35.8 29.8-56.5 40.3-21.4 11-25.9 20.1-19.2 43.6l.8 2.6c1.4 3.9 2.8 7.9-1 11.8-4.5 4.6-9.5 3.3-14.8 1.8l-.6-.1a406.4 406.4 0 0 1-137-68.3c-6-4.4-10.8-10.3-15.5-16.1l-.3-.4c-2.5-3-3-7.8.5-10.4 3.3-2.5 5.8-.5 8.7 1.8l1 .9a145.5 145.5 0 0 0 76.3 31.7c13.4 1.4 26.6.9 40 .4 7.4-.3 14.8-.6 22.3-.5 10.2 0 18.7-4.7 26.7-9.2l2.8-1.6c27.8-15.5 54.3-32.8 72.2-60.7 16.1-25 25.9-52.2 31.6-80.9 7.2-36.1 6.6-72.7 6-109.8-.3-12-.5-24.2-.5-36.4ZM50.6 190.8c21.9-1.7 34 11.2 44.3 26.3a140.4 140.4 0 0 1 22.4 61.5c.5 3.7 1 7.6-1.2 11.3-4.5.6-4.9-3-5-5.6-.5-20.7-9.7-38.7-18.9-56.1-6.6-12.5-16.2-24.6-31.4-27.6-17.2-3.5-33 12-40.8 32.2-14.5 37.6-12 74.6 1.4 111 5.8 15.9 13.1 32.1 27.8 43.2 14.8 11.3 32.7 9.3 43.6-5.7l2-2.5c2-2.6 4-5.1 5-8 2.1-5.8 5.4-11.2 11.3-10.4 6.8 1 8 8.3 8.7 14a3661 3661 0 0 0 22 156.7l5.9 38.8c2.6 17.1 5.6 41.7 3.6 52.1a28 28 0 0 0-.3 2.2c-.4 2.8-.6 5-4.2 5.5-4.9.8-7-2-7.7-6.4-2.3-17-3-23.6-4-49.6-.9-25.2-5.6-50-10.4-74.9l-5-27c-5.2-30.8-10.3-62-10.8-97l-2 3c-7.6 11.3-13.7 20.5-24.5 24a40.5 40.5 0 0 1-46.1-12.5 127.8 127.8 0 0 1-28.8-55.8c-8.4-34-9.9-67.1.9-100.6 5.2-16.1 23.7-44.7 42.2-42Zm34.6 127.5c4.4 3.2 8.4 6 12-5.4-1.1-42.2-14.7-69.2-35.8-70.3 11.2 14.6 22 28.8 23 48.5a32.3 32.3 0 0 1-10.7-8.8c-2-2.2-4-4.4-6.5-6l-3-2.4c-4.8-3.6-9.7-7.4-17.8-4.5 3.8 5.8 9 10 14.3 14 6 4.7 12 9.3 15.6 16.5-10.6 7.7-15.2 17.7-9.7 29.9 4.8 10.5 11.9 19.2 25.9 19.8-.6-6.3-4.7-10.9-8.8-15.4-5-5.4-9.7-10.6-7.5-18.6 3.2-1.5 6.2.7 9 2.7Z" fill="#000"/></g><g transform="translate(178 1057)"><path d="M1303 692 16 688.7S53.5 481.5 111 360C236.9 93.7 489.4 44.3 511.3 56.7c32 18 62.3 40.7 151.4 40.7 91.1 0 148.8-39.5 148.8-39.5s135.3 32.3 200.6 69.5c83.1 47.4 177 187 220.2 295.9 46 115.6 70.7 268.7 70.7 268.7Z" fill="#fff"/><path fill-rule="evenodd" clip-rule="evenodd" d="M1296.8 692c-6.3-26-11.8-51.9-17.3-77.9l-8.4-39c-8-36.6-18.6-72.3-30-107.6a678.2 678.2 0 0 0-42.1-102.8l-7-13.7a802.4 802.4 0 0 0-27.6-50.7c-27.4-45.3-58.1-88.3-97-124a334.8 334.8 0 0 0-102.4-65c-7-2.8-13.8-6-20.7-9.1-7.9-3.7-15.8-7.3-24-10.5-10.6-4-14.4-.7-18.8 7.3-8 14.7-18 28-32.9 36-40.3 21.6-82.3 33.2-126.5 13.6a138 138 0 0 1-48.6-35.4c-6-7-12.2-8.3-20.5-9.5-22-3.3-36.7 4.7-49 23.1-16.3 24.2-42.3 33.2-69.5 35.8a146.6 146.6 0 0 1-108-31.8A203.2 203.2 0 0 1 402 86.5l-9.7 4.5c-6.9 3.1-13.6 6.2-19.8 10-9.6 6-19.7 11-29.8 16a347.3 347.3 0 0 0-34 18.9 454.4 454.4 0 0 0-85.4 73.7 604 604 0 0 0-86.3 122.8 869 869 0 0 0-50 108.1 1216.5 1216.5 0 0 0-34 102 562 562 0 0 0-20.2 102.2c-.6 6.8-2.1 13.6-3.7 20.4-1.9 8.3-3.8 16.8-4.1 25.8-5.5 1-10.6 1-16.9 1 4.5-32.9 9.7-66 16-98.8 2.3-12 5.3-23.7 8.3-35.4l5.3-21.5c5.2-22.6 12.6-44.6 20-66.6l.9-2.7a836.3 836.3 0 0 1 83-179c17-27.2 36-53 57.1-77 37.3-43 79.1-80.3 130-105.9l10.8-5.4c36-18.2 72-36.4 112-44.2 11.1-2.1 22.2-4.6 33-7.6 12.7-3.5 15.2-9.1 10.3-21.1l-1-2.2c-.7-1.6-1.4-3.3-1.7-5v-.4c-.6-3.6-1.2-7.8 3.8-8.9 4.3-1 5.5 1.6 7 5l.6 1.1c1.6 3.2 3 6.5 4.5 9.7 4.8 10.8 9.6 21.7 18.6 30.6a101 101 0 0 0 59.7 27.2l5.3.7c24.8 3.3 49.7 6.7 75 5.4 35.3-1.8 70.2-5.5 104-16.5 5.2-1.7 9.7-4.8 14-8.3 7-5.8 6.5-10.6.5-16.8-8.9-9.2-11-20.6-10.3-32.6 4-1.5 7-.5 7.6 1.8 7 30.4 29.6 36 55.8 39 33.8 3.8 66.1 14.3 98.5 25 25.4 8.5 48.3 21.6 71.2 34.6l18.6 10.5c25 13.8 47.2 32.1 66.9 53.2 22.7 24.3 43.9 50 62.4 77.6 16.1 24 31.5 48.6 45 74.5a1007.4 1007.4 0 0 1 86.5 242c5.6 25.4 9.8 51.3 14.1 77.5 2.2 13.2 4.3 26.4 6.7 39.7-3.2.9-6.7.9-11.2.9ZM573 143a83.8 83.8 0 0 0 49.7-37.7 17 17 0 0 0-9.2-3.5l-2.8-.5a470 470 0 0 0-19.9-3.9c-27-4.8-54-9.7-74-32.8-1.3-1.5-4.6-1.7-7-1.8-27.5-.5-53.4 6.9-79.4 14.3l-11.2 3.2c.8 5.6 2.6 9 5.8 12.2a224 224 0 0 0 39.6 32.5c32.9 21 67.9 30.7 108.4 18Zm224 .3c-31.6 4.3-57.1-9-81-27.6-1.6-1.7-3.3-3-4.9-4.2-3-2.4-5.7-4.5-6.9-8.4 10.1-3.8 20.6-5.8 31.1-7.9 11.2-2.1 22.4-4.3 33-8.6l5.4-1.8c4.3-1.4 8.7-2.8 11.8-5.8 16.7-16.2 36.2-15.6 56.2-10.6 13 3.3 26 7 39.5 11l19 5.6-5.6 6.5c-14.1 16.6-26.6 31.3-46.9 38.5-16.7 6-33.2 11-50.7 13.3Z" fill="#000"/><path d="M1115.6 692c-9.1-36.9-12.1-74.7-22-111.2-7.7-28.1-13.9-56.8-23.8-84-7-19.4-13.7-39-23-57.8-12.7-25-23.1-51.2-34.4-77-1.3-3-2.9-6.3 1.3-8.8 4.3-2.6 7.4-.5 9.8 2.6 3.8 5 7.8 10.2 10.6 15.9 10 20.4 19.4 41.1 29.1 61.6A612.7 612.7 0 0 1 1097 529c9 31.6 17.5 63.6 21.5 96.6 2.6 21.4 7 42.7 8.6 65.4-3.3 1-6.8 1-11.4 1ZM221.2 692c-.6-3 .4-5.8.4-8.7 0-49.6 9.6-98 16.6-146.7 5-35 13.3-69 22.5-102.9a253.5 253.5 0 0 1 31.6-69c2.3-3.6 4-10 10-6.9 6.1 3.2 3.2 9 1.4 13.6-7.2 17.6-15.9 34.7-21.8 52.7a748.3 748.3 0 0 0-31 138.7c-1 8.5-2.7 16.8-4.9 25-7.4 28.5-3.8 58.4-10.9 87-1.1 4.7.3 10.1.3 16.2-4.5 1-8.9 1-14.2 1Z" fill="#000"/><path fill-rule="evenodd" clip-rule="evenodd" d="M645.9 165.5c-9 6.6-10.5 15.7-3.6 28.3l4 2.7c2.3 1.5 4.3 3 6.5 3.6 9.5 3 17-2 21.6-9.1 4.7-7 5.5-16.9-1.9-22-7.3-5.1-16.6-10.9-26.6-3.5Zm5.4 17.4Zm0 0c3.8 2.8 7.6 3.4 10.9-.5a3.4 3.4 0 0 0-1.2-5.3c-4.4-1.6-9.2-2.6-9.7 5.8Z" fill="#000"/></g><g transform="translate(266 207)"><path d="M393.2 749.9c-56.5 18.4-150.5-40-180.6-70-46-46-58.2-136.2-43.3-204.5 14.8-68.3 111.4-415.7 409.3-440C757.2 20.6 847.6 134 888 193.2c63 91.8 99.7 223.2 63 317.3-19.2 49.3-89.7 135.8-106.6 126.5-16.9-9.3-23-118.2-15-184.1 14-116.2-176.8-196.2-176.8-196.2S594.2 307 505.2 396c-89 89-126.6 162.8-129.7 220.9-3.4 63 17.7 132.9 17.7 132.9Z" fill="#fff"/><path fill-rule="evenodd" clip-rule="evenodd" d="M382.9 645.7c-1-17.7-2-35.6 1.8-54a157.3 157.3 0 0 1 24.8-71.3c27-45.1 62-84.3 98.8-121.4 27.4-27.7 54.3-51.6 81.6-75.8 19.4-17.2 38.9-34.6 59-53.5 8.3-8 96.4 41 128.6 73.3 20.4 20.5 40.4 44.4 45.3 66.5 4.6 21.2 2.7 42.8.8 64.4-.6 7.3-1.3 14.6-1.6 21.9-.4 6.8-1.5 13.6-2.6 20.4-2 12.4-4 24.8-1.6 37.6l4.5 22.8c4.1 20.2 8.3 40.4 9.2 61 .4 8.5 5.9 10.2 13.7 7.4 18.6-6.8 32-20.2 45.5-33.8 25-25 41.4-55.7 57.6-86.4 13.8-26.2 24-52.9 23.4-83.6-.2-7.7-.2-15.5-.2-23.3 0-9.1-.1-18.3-.4-27.4-.9-32.7-10.9-63.7-21.2-94-12-35.7-31.5-68.1-52.9-99.2-32.4-47.1-70-89-119-119.9-46.6-29.4-98.5-42.6-152.8-46.9-38.2-3-75.2 4.2-112 13.6-29 7.4-56 20-82.2 33.1a309.8 309.8 0 0 0-59.9 40.4c-45.5 38-87.4 78.5-119 129.3A895 895 0 0 0 192.2 363c-12.9 29.7-20 61.6-27 93.5l-2 9a276.3 276.3 0 0 0 22.3 186.8c22 44.9 60.3 74.3 107.1 91 27.4 9.7 55.3 19 85.3 19 14.7 0 17.2-.3 17-15.5-.1-12.4-2.9-24.5-5.6-36.6-3-12.7-5.8-25.4-5.7-38.7.1-8.6-.4-17.3-.8-26Zm453-190.6c.8-21.6-1-43.1-9.2-63.5-17.8-46.5-59-76.6-91-95.7a345.4 345.4 0 0 0-36.1-18c-10.4-4.7-19.5-8.8-26.8-13.7-10.2-6.8-11-8.7-1.5-17.4 1.3-1 2.5-2.3 3.5-3.7 10.7-16.9 32.1-32 49.6-39.5a72.3 72.3 0 0 0 39.9-40.7c1-2.5 1.7-4.9-2-8.9-13.8 21-30.4 38.8-57.2 48.6l10-17c10.3-16.8 20.2-33 25.7-53-10.3 2.7-13.3 9.9-15.8 16.1l-1.7 4a466.2 466.2 0 0 1-63.7 91.8c-18.1 20.7-37.2 36.4-56.5 52.3-14.4 11.8-29 23.7-43.4 38-11 10.8-22.2 21.1-33.5 31.4-20.5 18.8-41 37.6-59 58.7-25 29.3-49.2 59.4-71.4 91-15.2 21.6-19.7 48-23.2 74.5-6 46 1.7 90.7 9.7 135.5 3.5 19.3.2 23.7-19.2 24-23.7.3-45-8.2-65.6-18.4A265.4 265.4 0 0 1 223 679c-28.4-29.2-43.3-64.1-50.8-103.3-6.4-33.9-1.1-67 4.1-100l2.2-14c5-33 17-63.7 28.8-94.4 3.7-9.6 7.4-19.2 10.9-29 18.8-52 49.6-96.4 84.7-138 44-52.5 95.2-96.6 158.3-125.6 55-25.3 112.2-39.9 172.8-34.3 24 2.2 47.8 7.4 70.6 15.3a336 336 0 0 1 87.5 45.7 399 399 0 0 1 84.5 86c26.4 35 46.7 73.5 61.9 114.4a354 354 0 0 1 21.3 94c1.5 17 .7 33.8-.1 50.6l-.7 15.5c-.6 19-8.5 35.8-16.3 52.5l-2.8 6.3a310.6 310.6 0 0 1-80.2 104.8c-9.4 8.3-16.8 6.5-19.3-5.7a425.8 425.8 0 0 1-5.1-33.7l-2.4-18c-3.8-25.5-1.6-50.9.6-76.2 1-12.3 2.1-24.5 2.5-36.8Z" fill="#000"/><path d="M304 574.3c6.9-35.3 14.7-69.1 33.3-99.3a219.2 219.2 0 0 1 40.2-50.8c3.4-3 6.5-8.1 15-6.2-67 75.4-103.8 157.6-62.4 258.2-18.4-8.2-29.3-51-26-101.9ZM439.2 424.4l-40.5 54.8c2-35.7 141.3-200.3 176.8-203.6a875 875 0 0 0-136.3 148.8ZM919 480.2c-3.8 10.5-2.5 22-10.4 30.4-4.7-12 .6-22.7 4.5-33.1 1.4-4 4.7-1.8 6 2.7ZM935.2 441c5-5.4 7.4-3.1 7.5 2 .2 8.3-2 16-11 25 1.3-11 2.1-18.6 3.5-27ZM915.3 444.8c-1 4.9-1 9.5-7.4 10.6-4.5-9.9.8-17.1 5.4-25.5 6.5 4.6 3.2 9.4 2 14.9Z" fill="#000"/></g><g transform="translate(791 871)"><path d="M184 99.8a43 43 0 0 0 26.7-6.4c8.8-5.7 9.9-16.8 1.5-23.1-9.4-7.3-20-7-30-1.9-20.1 10.2-40 18.9-61.2 2.4-5-3.8-11.1-6.1-16.5-9.5a31.1 31.1 0 0 0-27-2.5C66.6 62.2 58 75.4 61.1 84.6c4 11.5 14.5 10.5 23.6 9.3 10.1-1.6 20.4-.7 30 2.7 22 7.7 44.3 7.4 69.1 3.2Z" fill="#fff"/><path fill-rule="evenodd" clip-rule="evenodd" d="m190.4 114.2 16-1.3c22.4-.3 37.1-30 22-49.3-14.2-18.4-37.7-21.3-56.8-5.5-11.4 9.5-26.3 11.5-34.6 2.8a67.3 67.3 0 0 0-33-18.1C74.9 35.3 50.6 49.4 47.3 82c-2 19.1 18.8 30 38.6 28.1l4.8-.5c5.3-.7 10.6-1.4 15.5.2 27.7 9 55.7 6.7 84.3 4.3Zm20.3-20.8a43 43 0 0 1-26.8 6.4c-24.8 4.2-47 4.5-69-3.2-9.7-3.4-20-4.3-30-2.7-9.2 1.2-19.7 2.2-23.7-9.3-3.2-9.2 5.5-22.4 16.2-25.8 9.3-3 18.4-2.8 27 2.5L111 65c3.5 1.8 7 3.6 10 6 21.2 16.4 41 7.7 61.2-2.5 10-5 20.6-5.4 30 1.9 8.4 6.3 7.3 17.4-1.5 23Z" fill="#000"/></g><g transform="translate(653 805)"></g><g transform="translate(901 668)"><path d="M109.6 185c-9.9 23.2-31.7 22.6-50.5 27.2-5.4 1.5-11.1 1-16.2-1.5.1-8.5 5.5-10.3 12-10.1 10.5.2 19.9-4 29.3-7.7 8.5-3.3 12-8.2 6.4-17.6-9-15.2-17.7-30.6-21.7-48.3a87.5 87.5 0 0 1 1.8-46.4c1.3-4 1.9-9.1 8-7.3 5 1.5 4.3 5.9 3.3 9.6-9.2 33 5 60 22.2 86.1 3 4.8 6.1 9.1 5.4 16Z" fill="#000"/></g><g transform="translate(610 680)"><path d="M407.4 122.5c13 .3 25.4 1.1 37.6 2.5 3 .4 5 3.3 5 6.7 0 3.3-1.7 5.6-4.7 7-11.2 4.8-22 8.2-33.7.2-6.5-4.5-9-8.7-4.2-16.4ZM247.6 117c7 0 7.8 3.8 7 8.5-2 10.2-20 22.4-30.4 20.5-5.9-1-10.5-4-10.7-10.5-.2-6.7 4.8-8.2 10.3-8.4 9-.3 15.8-5.2 23.8-10ZM215.1 76.6c5-12 9-29.4 24.1-22.5 20.7 9.4 13.9 30.7 9.7 47.4-1.6 6.3-14.5 15.9-18.3 14.3-16.3-6.8-19.2-21.7-15.5-39.2ZM442 113.4c-8.6 7.5-17 7.6-22.2-1.5-9-16-8.6-32.8 3.3-47.2 2.5-3 13.8-3.6 16.3-1 14 15 14.6 31.8 2.6 49.7Z" fill="#000"/></g><g transform="translate(610 680)"></g><g transform="translate(774 657)"><path d="M53.5 37.6a79.2 79.2 0 0 0 27.3-19.8c2.7-3 6.1-5.7 9.9-5 6.7 1.1 16.2-1 18.8 7.5 2.1 7-5.2 10.5-10.3 14.4-13.8 10.5-28.2 19-46.6 16.7-4.6-.5-9.7.2-11-6.2 1.6-5.5 7.3-4.9 11.9-7.6ZM251.4 15c8.5-1.7 12.6 4.1 17.1 8.2 8.1 7.4 14.7 16.4 26 19.8 3.3 1 5.7 4 4 8-1.5 3.5-4 5.7-8 4.6-14.3-3.8-29.2-5.9-40.6-16.8-10-9.6-10.2-14 1.5-23.7Z" fill="#000"/></g><g transform="translate(0 559)"><path d="m1724 1191.5-235.9 2.6s-64.3-75.3-31.2-274.1c4.8-28.8-15.4-210.2-16-224-1.9-36.3-15-106-32.4-133.5-78-124-65.6-142.6-69.3-170.7-3.9-29.7-10.5-81.2-15.3-101-2.2-9.2-18.2-74.1-.3-76 85.2-9.2 56.6 151.8 89.4 138.7 50.2-20 64-83.6 64-83.6s75.1-171.2 109.4-171.2c14 0-7.3 88.5-7.3 88.5s77.8-91.2 94.5-90.2c16.7 1-12.2 70.5-12.2 70.5s36.5-28.2 49.8-18c17.6 13.6-76 151.2-62.2 152 10.5.5 30.8-34 44-39.8 22-10 29.9-11.8 30.7 8.3 1 21.3-47.7 85.6-70.3 121.8-11.7 18.7-80.9 127.4-96 157.3-19.2 37.7 18.5 101 33.8 131.5 15.2 30.5 74.1 207.2 94.9 239.3 20.7 32.2 40.8 83.9 47.7 138.7 7.5 60.7-9.7 132.9-9.7 132.9Z" fill="#fff"/><path fill-rule="evenodd" clip-rule="evenodd" d="M1429.3 663a867 867 0 0 0 3 22l-3-27.6c-3.5-31.3-7-62.1 8.3 70.8 1.2 10.1 2 20.3 3 30.5 3.3 40.3 4.2 80.7 5 121.1.2 4.6 1.2 9.3 2.2 13.9a47.1 47.1 0 0 1 1.7 18.7c-2 10.7-3.1 21.5-4.2 32.3-1.5 15.8-3 31.6-7.8 47-2.2 7-2.4 14.1-2.4 21.4.1 41.7 4 82.8 17.2 122.8 7 21.2 15.6 41 30.9 58.2h11.7c-3.2-10.7-8.5-20.3-13.7-30-3.7-6.6-7.3-13.2-10.3-20.2-8.1-19.4-13.4-40-15.6-61v-.7c-2.2-19.5-4.4-39.2-3.6-59 .6-12.4 1.8-24.3 10-35.4 2.9 9.4 5.6 18.7 8.3 28 18.1 62.7 36.1 125 79.4 177.5 5.6.8 11.3.8 16.9 0a321.4 321.4 0 0 1-64.3-119.8l-4.7-15.1c-11-36-22.2-72.3-26.7-110-1.2-9.8-2.9-19.5-4.6-29.2-2.4-14.2-5-28.4-5.7-42.7l-1.8-32.4c-3.2-58.3-6.4-116.7-13.9-174.8-5.7-45-18.6-88.8-38.2-129.7-8.4-17.4-18.1-34.2-27.8-51-7-12.2-14-24.4-20.6-36.8-1.4-2.6-3-5.1-4.5-7.7-5-7.8-10-15.8-8.9-26 4-41.1-4.1-80.8-12.3-120.5l-3.7-18.1c-3.2-16.2-6-32.7-4.8-49.4.7-10.2 6.4-13.7 14.2-8.3a114.8 114.8 0 0 1 42.4 59.8c6.4 19.3 8.4 40.7 8.8 61.7.4 15.7 11.5 22.4 26.5 18 17.9-5.5 28.7-19.2 39.5-32.8l.8-1c10-12.8 16.2-27.7 22.3-42.6 2.4-5.8 4.7-11.6 7.4-17.3a1384.4 1384.4 0 0 1 65.6-126.7c8-13.6 16.3-27.9 34-34.2l-3 17.7c-7.2 42.3-14.1 83.8-30.2 123.3l6.3 3c28.1-55.9 60.3-108.7 110.5-148.6a26 26 0 0 1 1.5 18.6c-5 22.7-16.3 42.5-27.6 62.3-4 7-8 14-11.8 21.2-5.1 9.7-11 19.1-16.8 28.5a707 707 0 0 0-11.2 18.4l-.3.6c-2.6 4.6-5.7 9.8-1.5 15.1 4.2-.4 5.7-2.9 7-5.2l.4-.5a469 469 0 0 1 30.7-46.9l7.8-10.3c12.7-16.8 25.4-33.7 42.6-46.6l2-1.5c4.6-3.6 9.5-7.4 14.6-2.8 6 5.4 4 13.5.3 20-5.1 9.3-10.4 18.5-15.7 27.7-7 12-14 24.2-20.6 36.5l-7.8 14.3a2535.2 2535.2 0 0 0-33.3 62.9c-2.2 4.2-3.7 8.7 2.9 13.4a186 186 0 0 0 32-30.2c13.4-14.8 26.9-29.8 46.1-38.3 6.1 8.5 7.7 16 .8 26.2a1436.3 1436.3 0 0 0-30.4 47c-6.6 10.7-13.3 21.3-20.2 31.8-6.2 9.5-11.6 19.5-17 29.4-7.4 13.5-14.8 27-24 39.3a682.4 682.4 0 0 0-59.4 97.2c-15.5 30.3-12.6 60.4-2.5 90 12 35.4 28 69.5 44.5 103.3a598.8 598.8 0 0 1 30.2 81.4 3786.8 3786.8 0 0 0 5 16c8.2 25.4 16.4 51 22.7 77.2l4.6 18.7a557.3 557.3 0 0 1 13.9 67c4.1 33.3 3.7 66.8 0 100.4l-1.5 13c-3.6 34-7.1 67.7-27.2 96.9h34.6c46.8-83.9 30.3-168.9 3.2-254a103.9 103.9 0 0 1 22.2 45.1 625.3 625.3 0 0 1 13.8 67.3 342 342 0 0 1-6.1 137c-.5 1-1 2.1-1 3.7 3.9.9 8 .9 11.8 0l.7-1.3a70.5 70.5 0 0 0 7.8-21c3.8-25.2 6.5-50.6 6.5-76 0-38.4-9.2-75.7-18.5-112.8-.6-2.2-1-4.6-1.5-6.9-1.1-5.5-2.2-11-5-16.2-11.3-22-22.4-44.3-33.4-66.5l-20.5-41.2a572.8 572.8 0 0 1-29.8-76.5 705.2 705.2 0 0 0-23.6-63.5 873.1 873.1 0 0 1-15.8-38.8c-6.8-17.3-13.6-34.6-21.7-51.2-12.6-25.6-15.6-50.6-6-77 8.3-23.3 22-43.5 35.7-63.7 4.6-6.8 9.2-13.5 13.6-20.4 5-7.7 10.2-15.3 15.5-23a430.3 430.3 0 0 0 24.8-38.6c11.7-21.3 24.8-41.8 37.8-62.2a1737.1 1737.1 0 0 0 21-33.3c7-11.5 14.2-23.2 12.7-37.6-1.9-18-12.2-23.2-28.5-15.5-6.9 3.3-12.8 7.8-18.8 12.4-4.5 3.4-9 6.8-13.8 9.7a45.6 45.6 0 0 0 8.9-16c1.4-3.4 2.7-7 4.6-10.1a1100 1100 0 0 0 38-70.4 26.6 26.6 0 0 0-4.7-31c-7.2-7.2-16.9-6.1-25.7-.3a38.7 38.7 0 0 1-8 3.6l-3.7 1.5a56.7 56.7 0 0 0 8.7-38c-.2-6.8-.4-13.6-7.5-17a20.7 20.7 0 0 0-22.7 2.8 318.2 318.2 0 0 0-44.7 44.3l-1.7 1.8c-3 3.5-5.9 7.2-8.7 11-4.9 6.4-9.8 13-16.2 18.3 6.6-19 9.4-38.5 12.3-57.9a101.8 101.8 0 0 1 .8-5c1-5.7 2.1-11-4.1-15-6.8-4.4-13.2-1.4-19.2 2.2-17.1 10.5-28.3 26.5-38.2 43.3a939.6 939.6 0 0 0-41 80.1c-3.5 7.6-7.3 15-11 22.5a486 486 0 0 0-22.5 50.1 108 108 0 0 1-41.1 52.6c-10 6.8-17.8 3.3-19-7.6l-1-9.3c-2.5-23.6-4.9-47-15.7-69.7-8.8-18.7-19-34.5-35.7-46-14.7-10.3-30.5-7.4-35 6.2a55.8 55.8 0 0 0-3 20c1 22.1 5.8 43.5 10.5 65a751 751 0 0 1 7 33.8c.7 4.3 1.6 8.7 2.6 13 2.9 13.8 5.8 27.5 3.3 42.3a100.1 100.1 0 0 0 0 35.5c4 20.8 14.4 38.7 24.7 56.5 6.2 10.7 12.4 21.4 17.2 32.8a522.4 522.4 0 0 0 22.5 44.5l10.4 19.4c13.5 26 17 53.5 20.5 81.1Zm269.3 396.4.1 2.4c2.2 30.8-4.6 58.3-12 85.7 5.1-20.3 6.2-41.1 7.3-62 .5-10.8 1-21.5 2.2-32.3 2.5 1.6 2.4 4 2.4 6.2Z" fill="#000"/><path d="M1511.1 397.6c-2.9 24-8.6 45.7-22.8 65.2-6-5.5-5.1-9.9-3.5-13.7 15.6-36.6 14.3-75.6 17-114l.2-6.4c0-4.1.4-8 6-7.9 5.4.1 6 4.6 6 8.2 0 14.4.5 29-1.2 43.3-.9 8-1.4 16-1.7 25.3ZM1530.8 532.9c4.8-2.8 9.2-4.3 11.6.8 1.8 3.5-1.7 5.7-4 8.3a91.9 91.9 0 0 1-28.1 23 26.3 26.3 0 0 1-24.3-.3c-3-1.4-4.5-3.8-4-7.2.5-4 3.6-4.1 6.6-4 17.3.5 30-8.5 42.2-20.6ZM1557.1 391c5.7-2 10.6-3 14.8 1-6.3 10.5-29.9 22.2-40.7 20.2 3.3-13.3 16.3-14.6 26-21.3Z" fill="#000"/></g></g></svg>